# xmcd
#
# Track frame offsets:
#	150
#	25390
#	51857
#	75373
#	91986
#	108474
#	134456
#	156621
#	177658
#	201666
#	225081
#	248336
#	266377
#
# Disc length: 3857 seconds
#
# Revision: 0
# Processed by: cddbd v1.5.1PL2 Copyright (c) Steve Scherf et al.
# Submitted via: audiograbber 1.83.01
#
DISCID=a90f0f0d
DTITLE=Folkestra - Mamikám
DYEAR=2001
DGENRE=Folk-Rock
TTITLE0=Portugál
TTITLE1=Dilmano
TTITLE2=Ajdirinda
TTITLE3=Szeretlek,szeretlek
TTITLE4=Fehér
TTITLE5=4 Török
TTITLE6=Mamikám
TTITLE7=Mindegyre
TTITLE8=Szeretõm e táncba
TTITLE9=Török bicikli
TTITLE10=Török
TTITLE11=Adjon Isten
TTITLE12=Portugál kalap/filmzene
EXTD=World-music
EXTT0=
EXTT1=
EXTT2=
EXTT3=
EXTT4=
EXTT5=
EXTT6=
EXTT7=
EXTT8=
EXTT9=
EXTT10=
EXTT11=
EXTT12=
PLAYORDER=
